<mxfile host="Electron" agent="Mozilla/5.0 (X11; Linux x86_64) AppleWebKit/537.36 (KHTML, like Gecko) draw.io/24.7.8 Chrome/128.0.6613.84 Electron/32.0.2 Safari/537.36" version="24.7.8">
  <diagram name="Page-1" id="TDJMH1aZNbsIJ0r4-Kt9">
    <mxGraphModel dx="1396" dy="837" grid="1" gridSize="10" guides="1" tooltips="1" connect="1" arrows="1" fold="1" page="1" pageScale="1" pageWidth="850" pageHeight="1100" math="0" shadow="0">
      <root>
        <mxCell id="0" />
        <mxCell id="1" parent="0" />
        <mxCell id="1IJxRaSxj_hYwIENcZfZ-1" value="TLC" style="ellipse;whiteSpace=wrap;html=1;rounded=0;shadow=0;dashed=0;comic=0;fontFamily=Helvetica;fontSize=32;fontColor=#2F5B7C;fillColor=#f5f5f5;strokeColor=#2F5B7C;fontStyle=3;strokeWidth=3;labelBorderColor=none;" vertex="1" parent="1">
          <mxGeometry x="330" y="180" width="290" height="270" as="geometry" />
        </mxCell>
        <mxCell id="1IJxRaSxj_hYwIENcZfZ-2" value="Task update" style="ellipse;whiteSpace=wrap;html=1;rounded=0;shadow=0;dashed=0;comic=0;fontFamily=Helvetica;fontSize=22;fontColor=#000000;fillColor=#f5f5f5;strokeColor=#2F5B7C;fontStyle=1;strokeWidth=3;" vertex="1" parent="1">
          <mxGeometry x="395" y="110" width="160" height="160" as="geometry" />
        </mxCell>
        <mxCell id="1IJxRaSxj_hYwIENcZfZ-3" value="Robot&lt;div&gt;LfD&lt;/div&gt;" style="ellipse;whiteSpace=wrap;html=1;rounded=0;shadow=0;dashed=0;comic=0;fontFamily=Helvetica;fontSize=22;fontColor=#000000;fillColor=#f5f5f5;strokeColor=#2F5B7C;fontStyle=1;strokeWidth=3;" vertex="1" parent="1">
          <mxGeometry x="395" y="360" width="160" height="160" as="geometry" />
        </mxCell>
        <mxCell id="1IJxRaSxj_hYwIENcZfZ-4" value="Operator&lt;br&gt;Execution" style="ellipse;whiteSpace=wrap;html=1;rounded=0;shadow=0;dashed=0;comic=0;fontFamily=Helvetica;fontSize=22;fontColor=#000000;fillColor=#f5f5f5;strokeColor=#2F5B7C;fontStyle=1;strokeWidth=3;" vertex="1" parent="1">
          <mxGeometry x="555" y="235" width="160" height="160" as="geometry" />
        </mxCell>
        <mxCell id="1IJxRaSxj_hYwIENcZfZ-5" value="Robot&lt;br&gt;Autonomous/&lt;br&gt;Collaborative&lt;div&gt;Execution&lt;/div&gt;" style="ellipse;whiteSpace=wrap;html=1;rounded=0;shadow=0;dashed=0;comic=0;fontFamily=Helvetica;fontSize=22;fontColor=#000000;fillColor=#f5f5f5;strokeColor=#2F5B7C;fontStyle=1;strokeWidth=3;" vertex="1" parent="1">
          <mxGeometry x="236" y="235" width="160" height="160" as="geometry" />
        </mxCell>
        <mxCell id="1IJxRaSxj_hYwIENcZfZ-6" value="" style="triangle;whiteSpace=wrap;html=1;rotation=-35;strokeWidth=2;strokeColor=#2F5B7C;fillColor=#2F5B7C;" vertex="1" parent="1">
          <mxGeometry x="379" y="196" width="17" height="23" as="geometry" />
        </mxCell>
        <mxCell id="1IJxRaSxj_hYwIENcZfZ-7" value="" style="triangle;whiteSpace=wrap;html=1;rotation=45;strokeWidth=2;strokeColor=#2F5B7C;fillColor=#2F5B7C;" vertex="1" parent="1">
          <mxGeometry x="584" y="225" width="17" height="23" as="geometry" />
        </mxCell>
        <mxCell id="1IJxRaSxj_hYwIENcZfZ-8" value="" style="triangle;whiteSpace=wrap;html=1;rotation=-210;strokeWidth=2;strokeColor=#2F5B7C;fillColor=#2F5B7C;" vertex="1" parent="1">
          <mxGeometry x="554" y="412" width="17" height="23" as="geometry" />
        </mxCell>
        <mxCell id="1IJxRaSxj_hYwIENcZfZ-9" value="" style="triangle;whiteSpace=wrap;html=1;rotation=-135;strokeWidth=2;strokeColor=#2F5B7C;fillColor=#2F5B7C;" vertex="1" parent="1">
          <mxGeometry x="350" y="382" width="17" height="23" as="geometry" />
        </mxCell>
      </root>
    </mxGraphModel>
  </diagram>
</mxfile>
